<?xml version="1.0" ?><svg viewBox="0 0 32 32" xmlns="http://www.w3.org/2000/svg"><title/><g id="fish"><path d="M23.58,17.44a19.32,19.32,0,0,0-1-2.6,20.18,20.18,0,0,0-1.13-2.16,22.36,22.36,0,0,0-3.32-4.21l-.09-.09a21.54,21.54,0,0,0-1.84-1.62c-.23-.19-.48-.36-.72-.54a2,2,0,0,1-.19.72c-.17.36-.35.72-.56,1.08A17.29,17.29,0,0,1,8,14.8c-.34.19-.69.38-1.06.55a1.94,1.94,0,0,1-.72.18c.18.24.35.49.54.73h0a23.29,23.29,0,0,0,1.62,1.83l.09.09a21.91,21.91,0,0,0,4.21,3.31,18.46,18.46,0,0,0,2.15,1.14h0a19.31,19.31,0,0,0,2.6.95,6.4,6.4,0,0,0,1.79.26h.16a4.6,4.6,0,0,0,1.94-.44,4.22,4.22,0,0,0,1.22-.84,3.92,3.92,0,0,0,.84-1.22,4.6,4.6,0,0,0,.44-1.94A6.45,6.45,0,0,0,23.58,17.44Z"/><path d="M14,5.18A17,17,0,0,0,3.42,2.55a1,1,0,0,0-.87.88A16.93,16.93,0,0,0,5.18,14a1,1,0,0,0,.9.57,1,1,0,0,0,.43-.1c.34-.16.67-.33,1-.52a16.37,16.37,0,0,0,6.41-6.4c.19-.33.36-.67.52-1A1,1,0,0,0,14,5.18ZM9.71,7.71A1,1,0,0,1,9,8a1,1,0,0,1-.71-1.71A1,1,0,0,1,10,7,1,1,0,0,1,9.71,7.71Z"/><path d="M12.16,22.34a22.93,22.93,0,0,1-4.39-3.46l-.09-.09c-.43-.44-.83-.89-1.22-1.35a5.27,5.27,0,0,0,5.28,6.19,5.28,5.28,0,0,0,2-.42C13.22,23,12.69,22.67,12.16,22.34Z"/><path d="M30,21.61a1,1,0,0,0-.7-.71l-4.46-1.24a5.48,5.48,0,0,1-.52,2.1,4.8,4.8,0,0,1-1,1.49,5.16,5.16,0,0,1-1.52,1,5.45,5.45,0,0,1-2.07.51l1.24,4.46a1,1,0,0,0,.71.7,1.07,1.07,0,0,0,.25,0,1,1,0,0,0,.71-.29l7.14-7.14A1,1,0,0,0,30,21.61Z"/><path d="M18.79,7.67l.1.1a23.38,23.38,0,0,1,3.47,4.4c.32.53.6,1.06.86,1.59a5.33,5.33,0,0,0-4.95-7.39,5.45,5.45,0,0,0-.83.08C17.89,6.83,18.35,7.23,18.79,7.67Z"/></g></svg>